{"title":"arry Potter Bluray Collections All Parts(1-8)-BDRip-720p-Tamil&amp;a","uid":9006708,"size":6230812145,"categoryP":"video","categoryS":"hd___movies","magnet":"?xt=urn:btih:32cb1dcb804aee3ec62253982a439c8a1e8bdf79&amp;dn=arry+Potter+Bluray+Collections+All+Parts%281-8%29-BDRip-720p-Tamil%26a&amp;tr=udp%3A%2F%2Ftracker.openbittorrent.com%3A80&amp;tr=udp%3A%2F%2Fopen.demonii.com%3A1337&amp;tr=udp%3A%2F%2Ftracker.coppersurfer.tk%3A6969&amp;tr=udp%3A%2F%2Fexodus.desync.com%3A6969","seeders":1,"leechers":1,"uploader":"Hacking_Guys","files":15,"time":1381048753,"description":"[CENTER][FONT=&quot;Century Gothic&quot;][SIZE=6][COLOR=Red]Harry Potter Bluray 800MB Collections All Parts(1-8) - BDRip - 720p - Tamil &amp; Eng - E-Sub\n[/COLOR][/SIZE][/FONT]\n\n[IMG]http://i.imgur.com/tHvvONA.png?1[/IMG]\n\n[IMG]http://i.imgur.com/yElgnCZ.png[/IMG]\n\n[code]\nGeneral\nUnique ID                                : 194757567411342165416040712317574038101 (0x9284F16ED3FB97C1B2C5DFDEE89BC255)\nComplete name                            : Harry Potter Blueray 800MB Collections All Parts(1-8) - BDRip - 720p - Tamil+Eng - E-Sub - NoWM\nFormat                                   : Matroska\nFormat version                           : Version 4 / Version 2\nOverall bit rate                         : 878 Kbps\nEncoded date                             : UTC 2013-09-25 09:05:28\nWriting application                      : mkvmerge v6.3.0 ('You can't stop me!') built on Jun 28 2013 20:09:41\nWriting library                          : libebml v1.3.0 + libmatroska v1.4.0\n\nVideo\nID                                       : 1\nFormat                                   : AVC\nFormat/Info                              : Advanced Video Codec\nFormat profile                           : &lt;a class=&quot;__cf_email__&quot; href=&quot;/cdn-cgi/l/email-protection&quot; data-cfemail=&quot;80c8e9e7e8c0ccb3aeb1&quot;&gt;[email&amp;#160;protected]&lt;/a&gt;&lt;script cf-hash='f9e31' type=&quot;text/javascript&quot;&gt;\n/* &lt;![CDATA[ */!function(){try{var t=&quot;currentScript&quot;in document?document.currentScript:function(){for(var t=document.getElementsByTagName(&quot;script&quot;),e=t.length;e--;)if(t[e].getAttribute(&quot;cf-hash&quot;))return t[e]}();if(t&amp;&amp;t.previousSibling){var e,r,n,i,c=t.previousSibling,a=c.getAttribute(&quot;data-cfemail&quot;);if(a){for(e=&quot;&quot;,r=parseInt(a.substr(0,2),16),n=2;a.length-n;n+=2)i=parseInt(a.substr(n,2),16)^r,e+=String.fromCharCode(i);e=document.createTextNode(e),c.parentNode.replaceChild(e,c)}}}catch(u){}}();/* ]]&gt; */&lt;/script&gt;\nFormat settings, CABAC                   : Yes\nFormat settings, ReFrames                : 4 frames\nCodec ID                                 : V_MPEG4/ISO/AVC\nBit rate                                 : 684 Kbps\nWidth                                    : 1 280 pixels\nHeight                                   : 528 pixels\nDisplay aspect ratio                     : 2.40:1\nFrame rate mode                          : Constant\nFrame rate                               : 23.976 fps\nColor space                              : YUV\nChroma subsampling                       : 4:2:0\nBit depth                                : 8 bits\nScan type                                : Progressive\nBits/(Pixel*Frame)                       : 0.042\nStream size                              : 624 MiB (76%)\nTitle                                    : Ú©à¹€vÎ±rajan\nWriting library                          : x264 core 133 r2334 a3ac64b\nEncoding settings                        : cabac=1 // deblock=1:0:0 / analyse=0x3:0x113 / me=hex / subme=7 / psy=1 / psy_rd=1.00:0.00 // me_range=16 / chroma_me=1 / trellis=1 / 8x8dct=1 / cqm=0 / deadzone=21,11 / fast_pskip=1 / chroma_qp_offset=-2 / threads=12 / lookahead_threads=2 / sliced_threads=0 / nr=0 / decimate=1 / interlaced=0 / bluray_compat=0 / constrained_intra=0 / bframes=3 / b_pyramid=2 / b_adapt=1 / b_bias=0 / direct=1 / weightb=1 / open_gop=0 / weightp=2 / keyint=240 / keyint_min=23 / scenecut=40 / intra_refresh=0 / rc_lookahead=40 / rc=2pass / mbtree=1 / bitrate=684 / ratetol=1.0 / qcomp=0.60 / qpmin=0 / qpmax=69 / qpstep=4 / cplxblur=20.0 / qblur=0.5 / ip_ratio=1.40 / aq=1:1.00\nLanguage                                 : English\nDefault                                  : Yes\nForced                                   : No\n\nAudio #1\nID                                       : 2\nFormat                                   : MPEG Audio\nFormat version                           : Version 1\nFormat profile                           : Layer 3\nCodec ID                                 : A_MPEG/L3\nCodec ID/Hint                            : MP3\nBit rate mode                            : Constant\nBit rate                                 : 128 Kbps\nChannel count                            : 2 channels\nSampling rate                            : 44.1 KHz\nCompression mode                         : Lossy\nStream size                              : 119 MiB (15%)\nTitle                                    : Ú©à¹€vÎ±rajan\nLanguage                                 : Tamil\nDefault                                  : Yes\nForced                                   : Yes\n\nAudio #2\nID                                       : 3\nFormat                                   : AC-3\nFormat/Info                              : Audio Coding 3\nMode extension                           : CM (complete main)\nFormat settings, Endianness              : Big\nCodec ID                                 : A_AC3\nBit rate mode                            : Constant\nBit rate                                 : 64.0 Kbps\nChannel count                            : 2 channels\nChannel positions                        : Front: L R\nSampling rate                            : 48.0 KHz\nBit depth                                : 16 bits\nCompression mode                         : Lossy\nStream size                              : 59.7 MiB (7%)\nTitle                                    : Ú©à¹€vÎ±rajan\nLanguage                                 : English\nDefault                                  : No\nForced                                   : No\n\nText\nID                                       : 4\nFormat                                   : UTF-8\nCodec ID                                 : S_TEXT/UTF8\nCodec ID/Info                            : UTF-8 Plain Text\nTitle                                    : Ú©à¹€vÎ±rajan\nLanguage                                 : English\nDefault                                  : Yes\nForced                                   : Yes\n\n\n[/code]\n\n[IMG]http://i.imgur.com/WNFEzjW.png[/IMG]\n\n[B][FONT=Century Gothic][COLOR=Magenta][SIZE=5]\n100% Audio Perfectly Sycn!!!! So Njoy it Frnds!!!![/SIZE][/COLOR][/FONT][/B]\n\n[FONT=&quot;Century Gothic&quot;][COLOR=DarkOrange][SIZE=5][B]Credits : shammu4real &amp; tramanga[/B][/SIZE][/COLOR]\n\n[B][SIZE=&quot;5&quot;][COLOR=&quot;Blue&quot;]Please Seed Back After Download[/COLOR]\n\n[COLOR=&quot;Red&quot;]High Speed Seeding Njoy!!!!![/COLOR][/SIZE][/B][/FONT][/CENTER]","torrent":{"xt":"urn:btih:32cb1dcb804aee3ec62253982a439c8a1e8bdf79","amp;dn":"arry+Potter+Bluray+Collections+All+Parts%281-8%29-BDRip-720p-Tamil%26a","amp;tr":["udp%3A%2F%2Ftracker.openbittorrent.com%3A80","udp%3A%2F%2Fopen.demonii.com%3A1337","udp%3A%2F%2Ftracker.coppersurfer.tk%3A6969","udp%3A%2F%2Fexodus.desync.com%3A6969"],"infoHash":"32cb1dcb804aee3ec62253982a439c8a1e8bdf79","infoHashBuffer":{"type":"Buffer","data":[50,203,29,203,128,74,238,62,198,34,83,152,42,67,156,138,30,139,223,121]},"announce":[],"urlList":[]}}